<?xml version="1.0" encoding="utf-8"?>
<!-- Generator: Adobe Illustrator 16.0.4, SVG Export Plug-In . SVG Version: 6.00 Build 0)  -->
<!DOCTYPE svg PUBLIC "-//W3C//DTD SVG 1.1//EN" "http://www.w3.org/Graphics/SVG/1.1/DTD/svg11.dtd">
<svg version="1.1" id="Layer_1" xmlns="http://www.w3.org/2000/svg" xmlns:xlink="http://www.w3.org/1999/xlink" x="0px" y="0px"
	 width="512px" height="512px" viewBox="0 0 512 512" enable-background="new 0 0 512 512" xml:space="preserve">
<g>
	<path d="M373.175,182.766h-45.352l-27.144-27.412c0,0-0.135-0.135-0.202-0.135l-0.134-0.135l0,0
		c-4.031-4.031-9.474-6.584-15.655-6.584h-56.437c-6.585,0-12.43,2.822-16.529,7.323v0.067l-26.539,26.875h-46.359
		c-12.497,0-22.575,9.81-22.575,22.307v135.785c0,12.497,10.078,22.643,22.575,22.643h234.35c12.43,0,22.575-10.146,22.575-22.643
		V205.072C395.75,192.575,385.605,182.766,373.175,182.766z M256,329.57c-34.199,0-62.082-27.95-62.082-62.216
		c0-34.333,27.883-62.216,62.082-62.216c34.266,0,62.081,27.883,62.081,62.216C318.081,301.62,290.266,329.57,256,329.57z
		 M368.943,218.711c-5.174,0-9.406-4.232-9.406-9.474c0-5.24,4.232-9.474,9.406-9.474c5.173,0,9.406,4.233,9.406,9.474
		C378.349,214.479,374.115,218.711,368.943,218.711z"/>
	<path d="M256,220.323c-25.935,0-46.897,21.03-46.897,47.031c0,25.935,20.962,47.031,46.897,47.031
		c25.867,0,46.896-21.029,46.896-47.031C302.897,241.354,281.867,220.323,256,220.323z"/>
</g>
<path fill="#1D1D1B" d="M256,0C114.615,0,0,114.615,0,256s114.615,256,256,256s256-114.615,256-256S397.385,0,256,0z M256,477.5
	c-122.331,0-221.5-99.169-221.5-221.5S133.669,34.5,256,34.5S477.5,133.669,477.5,256S378.331,477.5,256,477.5z"/>
</svg>
