<?xml version="1.0" encoding="utf-8"?>
<!-- Generator: Adobe Illustrator 16.0.4, SVG Export Plug-In . SVG Version: 6.00 Build 0)  -->
<!DOCTYPE svg PUBLIC "-//W3C//DTD SVG 1.1//EN" "http://www.w3.org/Graphics/SVG/1.1/DTD/svg11.dtd">
<svg version="1.1" id="Layer_1" xmlns="http://www.w3.org/2000/svg" xmlns:xlink="http://www.w3.org/1999/xlink" x="0px" y="0px"
	 width="512px" height="512px" viewBox="0 0 512 512" enable-background="new 0 0 512 512" xml:space="preserve">
<path fill="#1D1D1B" d="M256,0C114.615,0,0,114.615,0,256s114.615,256,256,256s256-114.615,256-256S397.385,0,256,0z M256,477.5
	c-122.331,0-221.5-99.169-221.5-221.5S133.669,34.5,256,34.5c122.33,0,221.5,99.169,221.5,221.5S378.33,477.5,256,477.5z"/>
<path fill="#FFFFFF" d="M256,34.5C133.669,34.5,34.5,133.669,34.5,256S133.669,477.5,256,477.5S477.5,378.331,477.5,256
	S378.331,34.5,256,34.5z"/>
<g>
	<path fill="#FFFFFF" d="M257.817,159.5c-22.562,0.005-42.886,3.205-62.384,10.398c-44.423,16.385-79.564,44.453-104.843,84.639
		c-5.927,9.423-5.774,18.864,0.075,28.239c16.985,27.218,39.153,49.206,66.477,66.051c32.872,20.265,68.388,30.367,107.151,28.673
		c26.567-1.161,51.632-7.92,75.237-19.938c34.086-17.353,61.535-42.096,81.752-74.693c5.748-9.269,6.146-18.615,0.337-27.979
		c-16.415-26.45-37.761-48.023-64.018-64.773C326.618,170.353,292.947,159.594,257.817,159.5z"/>
	<path fill-rule="evenodd" clip-rule="evenodd" d="M257.817,159.5c35.13,0.094,68.802,10.853,99.785,30.617
		c26.257,16.75,47.603,38.323,64.018,64.773c5.81,9.363,5.411,18.71-0.337,27.979c-20.217,32.598-47.666,57.341-81.752,74.693
		c-23.605,12.018-48.67,18.776-75.237,19.938c-38.764,1.694-74.279-8.408-107.151-28.673
		c-27.324-16.845-49.492-38.833-66.477-66.051c-5.85-9.375-6.002-18.816-0.075-28.239c25.279-40.187,60.42-68.254,104.843-84.639
		C214.931,162.705,235.255,159.505,257.817,159.5z M182.298,201.894c-30.551,15.878-53.781,38.606-72.146,67.154
		c5.347,6.958,10.322,14.112,15.98,20.68c30.115,34.953,66.896,58.078,113.665,62.986c24.396,2.56,48.188-0.344,71.199-8.928
		c23.453-8.744,43.754-22.464,61.692-39.778c11.015-10.631,20.544-22.492,28.924-35.355c-18.253-28.237-41.418-50.945-71.888-66.722
		c23.318,42.246,7.706,88.38-24.6,111.783c-27.91,20.217-71.593,21.286-101.431-2.405
		C174.572,288.183,159.254,243.771,182.298,201.894z M198.411,242.268c-0.019,0.302-0.046,0.605-0.053,0.908
		c-0.127,5.888,3.439,10.083,8.751,10.298c5.285,0.213,9.149-3.763,9.494-9.594c0.16-2.711,0.33-5.465,0.928-8.103
		c4.084-18.008,19.011-30.011,38.165-30.826c5.605-0.238,9.5-4.108,9.415-9.353c-0.086-5.18-4.246-8.946-9.834-8.904
		C224.719,186.931,199.38,211.695,198.411,242.268z"/>
	<path fill-rule="evenodd" clip-rule="evenodd" fill="#FFFFFF" d="M182.298,201.894c-23.044,41.877-7.727,86.289,21.395,109.414
		c29.838,23.691,73.521,22.622,101.431,2.405c32.306-23.402,47.918-69.537,24.6-111.783c30.47,15.777,53.635,38.485,71.888,66.722
		c-8.38,12.863-17.909,24.725-28.924,35.355c-17.938,17.314-38.239,31.034-61.692,39.778c-23.012,8.584-46.803,11.487-71.199,8.928
		c-46.769-4.908-83.549-28.033-113.665-62.986c-5.658-6.567-10.633-13.722-15.98-20.68
		C128.517,240.5,151.747,217.771,182.298,201.894z"/>
	<path fill-rule="evenodd" clip-rule="evenodd" fill="#FFFFFF" d="M198.413,242.269c0.966-30.573,26.306-55.337,56.864-55.573
		c5.588-0.042,9.748,3.724,9.834,8.904c0.086,5.244-3.81,9.114-9.415,9.353c-19.153,0.815-34.08,12.817-38.165,30.826
		c-0.598,2.638-0.768,5.392-0.928,8.103c-0.345,5.831-4.209,9.807-9.494,9.594c-5.312-0.215-8.879-4.411-8.751-10.298
		C198.365,242.873,198.393,242.57,198.413,242.269z"/>
</g>
</svg>
