<?xml version="1.0" encoding="utf-8"?>
<!-- Generator: Adobe Illustrator 16.0.4, SVG Export Plug-In . SVG Version: 6.00 Build 0)  -->
<!DOCTYPE svg PUBLIC "-//W3C//DTD SVG 1.1//EN" "http://www.w3.org/Graphics/SVG/1.1/DTD/svg11.dtd">
<svg version="1.1" id="Layer_1" xmlns="http://www.w3.org/2000/svg" xmlns:xlink="http://www.w3.org/1999/xlink" x="0px" y="0px"
	 width="512px" height="512px" viewBox="0 0 512 512" enable-background="new 0 0 512 512" xml:space="preserve">
<path fill="#1D1D1B" d="M256,0C114.615,0,0,114.615,0,256s114.615,256,256,256s256-114.615,256-256S397.385,0,256,0z M256,477.5
	c-122.331,0-221.5-99.169-221.5-221.5S133.669,34.5,256,34.5S477.5,133.669,477.5,256S378.331,477.5,256,477.5z"/>
<path fill="#0D0D0D" d="M383.765,273.379c-9.204,0-17.379-8.186-17.379-17.379c0-9.203,8.175-17.377,17.379-17.377
	c9.192,0,17.377,8.174,17.377,17.377C401.142,266.221,393.986,273.379,383.765,273.379z M333.677,359.229
	c-7.157-7.156-7.157-18.395,0-24.523c7.156-7.158,18.396-7.158,24.535,0c7.156,7.146,7.156,18.395,0,24.523
	C352.073,365.367,340.833,365.367,333.677,359.229z M333.677,178.313c-7.157-7.147-7.157-18.396,0-24.524
	c7.156-7.157,18.396-7.157,24.535,0c7.156,7.156,7.156,18.396,0,24.524C352.073,185.47,340.833,185.47,333.677,178.313z
	 M257.018,338.787c-44.972,0-81.768-36.791-81.768-81.77c0-44.966,36.796-81.769,81.768-81.769c44.978,0,81.77,36.802,81.77,81.769
	C338.787,301.996,301.995,338.787,257.018,338.787z M196.715,261.109c2.047,31.682,28.623,57.234,60.303,57.234
	c31.692,0,58.263-25.553,60.31-57.234H196.715z M256,145.614c-9.203,0-17.377-8.185-17.377-17.378
	c0-9.203,8.174-17.377,17.377-17.377c9.198,0,17.378,8.174,17.378,17.377C273.378,137.429,266.222,145.614,256,145.614z
	 M153.789,178.313c-7.156-7.147-7.156-18.396,0-24.524c7.152-7.157,18.396-7.157,24.53,0c7.152,7.156,7.152,18.396,0,24.524
	C171.162,184.452,159.918,185.47,153.789,178.313z M128.236,273.379c-9.202,0-17.377-8.186-17.377-17.379
	c0-9.203,8.175-17.377,17.377-17.377c9.198,0,17.374,8.174,17.374,17.377C145.61,266.221,138.457,273.379,128.236,273.379z
	 M178.319,333.676c7.152,7.158,7.152,18.396,0,24.535c-7.157,6.129-18.4,7.156-24.53,0c-7.156-7.156-7.156-18.396,0-24.535
	C159.918,327.547,171.162,327.547,178.319,333.676z M256,366.385c9.198,0,17.378,8.176,17.378,17.379
	c0,9.193-8.18,17.379-17.378,17.379c-9.203,0-17.377-8.186-17.377-17.379C238.623,374.561,246.797,366.385,256,366.385z"/>
</svg>
